<svg width="320" height="47" viewBox="0 0 320 47" fill="none" xmlns="http://www.w3.org/2000/svg">
<path d="M120.836 41.9095V4.64874H130.772L141.626 25.8172L152.427 4.64874H162.039V41.9095H153.993V18.8509L144.542 37.3196H138.386L128.882 18.8509V41.9095H120.836ZM166.79 41.9095L180.992 4.64874H190.28L204.536 41.9095H195.464L192.872 34.7274H178.238L175.592 41.9095H166.79ZM180.992 27.1131H190.118L185.528 14.5853L180.992 27.1131ZM205.723 23.2791C205.723 12.4251 214.093 4.1087 224.947 4.1087C232.561 4.1087 238.987 8.32111 242.065 14.8011L234.451 18.3651C232.777 14.5311 229.321 12.1009 224.947 12.1009C218.683 12.1009 214.146 16.8528 214.146 23.2791C214.146 29.7054 218.683 34.4573 224.947 34.4573C229.321 34.4573 232.777 32.0272 234.451 28.1932L242.065 31.7571C238.987 38.2376 232.561 42.4495 224.947 42.4495C214.093 42.4495 205.723 34.1331 205.723 23.2791ZM248.004 41.9095V4.64874H263.772C270.846 4.64874 276.192 10.157 276.192 17.3392C276.192 22.4691 273.601 26.5193 269.712 28.5174L277.165 41.9095H267.822L261.288 29.9754H256.482V41.9095H248.004ZM256.482 22.1453H262.638C265.716 22.1453 267.769 20.2552 267.769 17.3392C267.769 14.369 265.716 12.4788 262.638 12.4788H256.482V22.1453ZM281.052 23.2791C281.052 12.4251 289.476 4.1087 300.384 4.1087C311.292 4.1087 319.717 12.4251 319.717 23.2791C319.717 34.1331 311.292 42.4495 300.384 42.4495C289.476 42.4495 281.052 34.1331 281.052 23.2791ZM311.239 23.2791C311.239 16.7991 306.595 12.1009 300.384 12.1009C294.12 12.1009 289.476 16.7991 289.476 23.2791C289.476 29.7591 294.12 34.4573 300.384 34.4573C306.595 34.4573 311.239 29.7591 311.239 23.2791Z" fill="#333C66"/>
<path d="M36.6655 21.4213L30.1439 35.1616L16.2863 46.6527H6.96751C4.50799 46.6527 2.26715 45.2399 1.20672 43.0208C0.146312 40.8016 0.454891 38.1706 2.00002 36.257L19.8051 14.2061C21.1523 12.5377 23.1818 11.5681 25.3262 11.5685C27.4706 11.569 29.4998 12.5394 30.8463 14.2084L36.6655 21.4213Z" fill="url(#paint0_linear_928_2)"/>
<path d="M92.2883 35.0119C94.0189 37.1543 94.3648 40.1004 93.1776 42.5855C91.9905 45.0706 89.4813 46.6527 86.7272 46.6527H57.042L44.1784 34.5014L36.6665 21.4213L50.6466 4.11146C52.6819 1.59143 55.7475 0.126729 58.9867 0.126587C62.226 0.126445 65.2917 1.59092 67.3272 4.11078L92.2883 35.0119Z" fill="url(#paint1_linear_928_2)"/>
<path d="M68.1117 46.6527H8.76782H8.95779C13.5933 46.6527 17.9803 44.5568 20.893 40.9507L36.6667 21.4213L50.7235 38.8282C54.7196 43.7766 60.739 46.6527 67.0995 46.6527H68.1117Z" fill="url(#paint2_linear_928_2)"/>
<defs>
<linearGradient id="paint0_linear_928_2" x1="0.730217" y1="42.8269" x2="34.2027" y2="18.567" gradientUnits="userSpaceOnUse">
<stop stop-color="#568FFF"/>
<stop offset="1" stop-color="#4918BD"/>
</linearGradient>
<linearGradient id="paint1_linear_928_2" x1="89.5056" y1="23.3896" x2="39.9759" y2="23.3896" gradientUnits="userSpaceOnUse">
<stop stop-color="#1AB0E2"/>
<stop offset="0.557813" stop-color="#43D2ED"/>
<stop offset="1" stop-color="#5FE9F5"/>
</linearGradient>
<linearGradient id="paint2_linear_928_2" x1="8.76782" y1="34.037" x2="68.1117" y2="34.037" gradientUnits="userSpaceOnUse">
<stop stop-color="#1AD1E2"/>
<stop offset="0.382163" stop-color="#27B5EC"/>
<stop offset="0.999227" stop-color="#4080FF"/>
</linearGradient>
</defs>
</svg>
